<svg xmlns="http://www.w3.org/2000/svg" xmlns:xlink="http://www.w3.org/1999/xlink" width="600" zoomAndPan="magnify" viewBox="0 0 450 172.499995" height="230" preserveAspectRatio="xMidYMid meet" version="1.0"><defs><g/><clipPath id="3b47101961"><path d="M 320.507812 54.003906 L 334.71875 54.003906 L 334.71875 116.820312 L 320.507812 116.820312 Z M 320.507812 54.003906 " clip-rule="nonzero"/></clipPath><clipPath id="0d26b63516"><path d="M 25.277344 23.367188 L 322 23.367188 L 322 105 L 25.277344 105 Z M 25.277344 23.367188 " clip-rule="nonzero"/></clipPath><clipPath id="dbd28bd7a1"><path d="M 25.277344 68 L 322 68 L 322 149 L 25.277344 149 Z M 25.277344 68 " clip-rule="nonzero"/></clipPath></defs><g clip-path="url(#3b47101961)"><path fill="#e67b53" d="M 320.511719 116.820312 L 320.511719 54.003906 L 334.726562 54.003906 L 334.726562 116.820312 Z M 320.511719 116.820312 " fill-opacity="1" fill-rule="nonzero"/></g><g clip-path="url(#0d26b63516)"><path fill="#d1e1f1" d="M 321.695312 59.121094 C 321.625 57.992188 321.679688 56.78125 321.542969 55.699219 C 321.378906 54.453125 320.914062 53.140625 320.570312 51.925781 C 320.25 50.804688 319.882812 49.691406 319.492188 48.59375 C 319.3125 48.082031 319.113281 47.582031 318.910156 47.078125 C 318.824219 46.863281 318.734375 46.652344 318.644531 46.4375 C 318.914062 47.082031 317.878906 44.582031 318.121094 45.167969 C 316.257812 40.660156 313.023438 36.214844 309.28125 33.09375 C 304.605469 29.199219 299.277344 26.992188 293.265625 26.167969 C 287.097656 25.320312 280.863281 25.207031 274.644531 25.03125 C 249.277344 24.324219 223.914062 23.835938 198.535156 23.652344 C 173.273438 23.46875 148.007812 23.542969 122.75 24.09375 C 110.023438 24.371094 97.296875 24.769531 84.578125 25.320312 C 78.269531 25.59375 71.960938 25.90625 65.660156 26.253906 C 59.324219 26.609375 52.867188 26.738281 46.601562 27.777344 C 40.519531 28.785156 35.261719 32.523438 32.640625 38.171875 C 30.191406 43.449219 29.039062 49.261719 28.050781 54.964844 C 25.917969 67.242188 25.269531 79.820312 26.644531 92.222656 C 26.828125 93.871094 27.078125 95.542969 27.472656 97.15625 C 27.882812 98.832031 28.722656 100.433594 29.417969 102.019531 C 30.167969 103.714844 32.558594 104.4375 34.222656 103.976562 C 36.167969 103.441406 37.125 101.753906 37.34375 99.863281 C 37.53125 98.257812 37.773438 97.492188 37.777344 95.757812 C 37.78125 94.183594 37.691406 92.609375 37.582031 91.042969 C 37.375 88.1875 37.265625 85.324219 37.246094 82.464844 C 37.210938 76.640625 37.558594 70.804688 38.261719 65.023438 C 38.308594 64.632812 38.359375 64.238281 38.410156 63.84375 C 38.394531 63.96875 38.296875 64.617188 38.402344 63.929688 C 38.507812 63.246094 38.601562 62.5625 38.710938 61.878906 C 38.953125 60.320312 39.230469 58.769531 39.535156 57.21875 C 40.078125 54.429688 40.710938 51.652344 41.441406 48.90625 C 41.730469 47.820312 42.042969 46.746094 42.410156 45.683594 C 42.574219 45.203125 43.128906 44.074219 42.601562 45.105469 C 42.890625 44.539062 43.140625 43.964844 43.457031 43.414062 C 43.632812 43.105469 44.769531 41.601562 43.824219 42.710938 C 44.125 42.355469 44.421875 42.003906 44.753906 41.679688 C 44.976562 41.460938 45.210938 41.253906 45.445312 41.050781 C 45.230469 41.238281 44.410156 41.699219 45.386719 41.164062 C 45.609375 41.039062 45.824219 40.90625 46.046875 40.789062 C 46.613281 40.484375 46.984375 40.457031 46.191406 40.699219 C 47.269531 40.367188 48.519531 39.886719 49.664062 39.867188 C 48.378906 39.886719 49.824219 39.867188 50.324219 39.824219 C 51.011719 39.769531 51.695312 39.726562 52.382812 39.6875 C 55.464844 39.511719 58.546875 39.351562 61.632812 39.171875 C 67.726562 38.824219 73.828125 38.507812 79.929688 38.230469 C 92.128906 37.679688 104.335938 37.265625 116.546875 36.972656 C 140.867188 36.382812 165.199219 36.257812 189.527344 36.394531 C 213.96875 36.527344 238.40625 36.980469 262.847656 37.195312 C 268.953125 37.246094 275.066406 37.382812 281.171875 37.34375 C 283.878906 37.328125 286.589844 37.289062 289.292969 37.394531 C 290.648438 37.449219 292 37.558594 293.351562 37.695312 C 293.019531 37.664062 292.121094 37.527344 293.660156 37.734375 C 293.914062 37.769531 294.164062 37.800781 294.417969 37.835938 C 293.886719 37.757812 293.828125 37.75 294.242188 37.8125 C 294.945312 37.945312 295.652344 38.0625 296.351562 38.222656 C 297.570312 38.5 298.75 38.875 299.925781 39.292969 C 300.167969 39.378906 301.675781 40.011719 300.839844 39.621094 C 301.398438 39.882812 301.941406 40.164062 302.464844 40.476562 C 302.917969 40.746094 303.363281 41.035156 303.796875 41.332031 C 303.894531 41.402344 304.65625 41.949219 304.207031 41.617188 C 303.804688 41.316406 304.394531 41.769531 304.425781 41.792969 C 305.359375 42.566406 306.242188 43.390625 307.074219 44.273438 C 308.800781 46.105469 309.613281 47.375 310.96875 49.257812 C 312.125 50.855469 313.476562 53.0625 314.6875 54.914062 C 315.296875 55.847656 315.785156 56.957031 316.472656 57.820312 C 317.15625 58.6875 317.992188 59.484375 318.722656 60.351562 C 319.679688 61.5 321.785156 60.582031 321.695312 59.121094 Z M 321.695312 59.121094 " fill-opacity="1" fill-rule="nonzero"/></g><g clip-path="url(#dbd28bd7a1)"><path fill="#d1e1f1" d="M 318.722656 112.042969 C 318.058594 112.835938 317.40625 113.574219 316.695312 114.285156 C 315.816406 115.167969 315.238281 116.628906 314.558594 117.683594 C 313.40625 119.472656 312.082031 121.613281 310.96875 123.140625 C 309.601562 125.023438 308.789062 126.304688 307.074219 128.125 C 306.292969 128.949219 305.472656 129.730469 304.601562 130.460938 C 304.425781 130.605469 304.253906 130.75 304.074219 130.890625 C 304.722656 130.386719 304.101562 130.851562 303.980469 130.933594 C 303.476562 131.269531 302.984375 131.613281 302.464844 131.921875 C 302 132.195312 301.527344 132.4375 301.046875 132.675781 C 300.328125 133.03125 301.75 132.417969 300.921875 132.738281 C 300.675781 132.835938 300.425781 132.929688 300.175781 133.019531 C 298.835938 133.503906 297.480469 133.929688 296.089844 134.238281 C 295.5625 134.351562 295.035156 134.449219 294.503906 134.542969 C 293.371094 134.742188 294.175781 134.597656 294.414062 134.5625 C 294.390625 134.566406 291.898438 134.851562 293.347656 134.703125 C 291.996094 134.84375 290.648438 134.949219 289.289062 135.003906 C 283.488281 135.234375 277.660156 135.070312 271.851562 135.121094 C 247.414062 135.347656 222.976562 135.75 198.535156 135.945312 C 174.207031 136.140625 149.871094 136.101562 125.546875 135.625 C 101.136719 135.148438 76.757812 134.105469 52.382812 132.714844 C 51.78125 132.679688 51.179688 132.644531 50.578125 132.597656 C 50.234375 132.570312 49.890625 132.535156 49.546875 132.507812 C 49.421875 132.496094 48.554688 132.386719 49.347656 132.492188 C 50.195312 132.605469 49.105469 132.441406 48.898438 132.40625 C 48.648438 132.359375 48.394531 132.3125 48.144531 132.253906 C 47.480469 132.109375 46.84375 131.863281 46.1875 131.703125 C 47.222656 131.953125 46.617188 131.933594 46.269531 131.734375 C 45.976562 131.566406 45.679688 131.402344 45.382812 131.238281 C 45.28125 131.183594 44.546875 130.707031 45.203125 131.15625 C 45.863281 131.609375 45.078125 131.03125 44.921875 130.882812 C 44.527344 130.511719 44.175781 130.105469 43.824219 129.695312 C 44.652344 130.664062 43.71875 129.441406 43.457031 128.992188 C 43.183594 128.511719 42.964844 128 42.699219 127.515625 C 42.378906 126.929688 42.796875 127.78125 42.824219 127.851562 C 42.710938 127.550781 42.59375 127.25 42.488281 126.949219 C 42.085938 125.8125 41.753906 124.660156 41.445312 123.496094 C 40.6875 120.652344 40.035156 117.78125 39.480469 114.894531 C 39.21875 113.539062 38.980469 112.179688 38.757812 110.816406 C 38.648438 110.136719 38.550781 109.449219 38.445312 108.769531 C 38.421875 108.621094 38.285156 107.628906 38.410156 108.558594 C 38.359375 108.167969 38.3125 107.777344 38.261719 107.382812 C 37.902344 104.441406 37.644531 101.488281 37.472656 98.527344 C 37.132812 92.714844 37.171875 86.875 37.601562 81.070312 C 37.703125 79.691406 37.730469 78.324219 37.769531 76.945312 C 37.820312 75.109375 37.53125 74.136719 37.339844 72.542969 C 37.121094 70.644531 36.171875 68.96875 34.21875 68.429688 C 32.550781 67.96875 30.167969 68.6875 29.417969 70.386719 C 28.761719 71.878906 27.96875 73.394531 27.535156 74.964844 C 27.042969 76.738281 26.804688 78.652344 26.613281 80.476562 C 26.289062 83.523438 26.09375 86.582031 25.996094 89.644531 C 25.804688 95.5625 26.011719 101.492188 26.644531 107.382812 C 27.332031 113.792969 28.378906 120.171875 29.933594 126.429688 C 31.320312 132.019531 33.488281 137.464844 38.15625 141.078125 C 43.328125 145.089844 50.117188 145.144531 56.355469 145.589844 C 62.652344 146.039062 68.964844 146.34375 75.269531 146.65625 C 87.988281 147.28125 100.710938 147.746094 113.4375 148.085938 C 138.6875 148.757812 163.953125 148.921875 189.214844 148.804688 C 214.589844 148.6875 239.960938 148.332031 265.328125 147.628906 C 271.589844 147.457031 277.855469 147.328125 284.113281 147.035156 C 289.910156 146.765625 295.878906 146.375 301.3125 144.1875 C 306.644531 142.039062 310.925781 138.335938 314.324219 133.742188 C 317.449219 129.519531 319.25 125.320312 320.621094 120.25 C 320.902344 119.199219 321.246094 118.140625 321.488281 117.085938 C 321.640625 116.402344 321.535156 115.695312 321.582031 115.015625 C 321.621094 114.4375 321.65625 113.863281 321.6875 113.285156 C 321.78125 111.828125 319.683594 110.894531 318.722656 112.042969 Z M 318.722656 112.042969 " fill-opacity="1" fill-rule="nonzero"/></g><path fill="#d1e1f1" d="M 341.726562 54.3125 C 335.5 51.621094 327.875 51.785156 321.273438 52.632812 C 320.214844 52.765625 319.011719 53.332031 318.789062 54.527344 C 316.957031 64.371094 316.117188 74.339844 316.3125 84.351562 C 316.410156 89.332031 316.75 94.304688 317.335938 99.25 C 317.621094 101.65625 317.953125 104.054688 318.34375 106.441406 C 318.535156 107.621094 318.742188 108.796875 318.964844 109.972656 C 319.203125 111.253906 319.683594 112.675781 319.625 113.976562 C 319.539062 115.777344 321.441406 117.082031 323.09375 116.625 C 324.847656 116.140625 325.535156 114.15625 324.730469 112.589844 C 324.238281 111.628906 324.179688 110.246094 323.984375 109.199219 C 323.765625 108.023438 323.5625 106.847656 323.367188 105.667969 C 322.992188 103.335938 322.675781 101 322.417969 98.65625 C 321.902344 93.902344 321.609375 89.128906 321.542969 84.351562 C 321.410156 74.835938 322.171875 65.28125 323.757812 55.902344 C 323.160156 56.5 322.558594 57.105469 321.960938 57.707031 C 325.25 57.230469 328.585938 56.890625 331.902344 56.660156 C 335.101562 56.4375 338.378906 56.34375 341.535156 55.765625 C 342.171875 55.652344 342.34375 54.582031 341.726562 54.3125 Z M 341.726562 54.3125 " fill-opacity="1" fill-rule="nonzero"/><path fill="#d1e1f1" d="M 345.265625 115.726562 C 343.9375 114.574219 342.089844 114.59375 340.410156 114.507812 C 338.25 114.398438 336.113281 114.378906 333.949219 114.4375 C 329.738281 114.546875 325.554688 114.859375 321.355469 115.230469 C 320.007812 115.351562 318.847656 116.300781 318.847656 117.75 C 318.847656 119.011719 319.996094 120.390625 321.355469 120.265625 C 325.554688 119.867188 329.753906 119.535156 333.949219 119.132812 C 335.984375 118.941406 338 118.726562 340.027344 118.433594 C 341.804688 118.179688 343.921875 118.160156 345.265625 116.816406 C 345.542969 116.539062 345.582031 116 345.265625 115.726562 Z M 345.265625 115.726562 " fill-opacity="1" fill-rule="nonzero"/><path fill="#d1e1f1" d="M 348.902344 113.542969 C 349.953125 111.34375 350.457031 109.015625 350.761719 106.613281 C 351.175781 103.378906 351.363281 100.09375 351.40625 96.816406 C 351.3125 96.820312 351.21875 96.824219 351.125 96.824219 L 349.101562 96.824219 C 348.554688 96.824219 348.035156 96.714844 347.550781 96.527344 C 347.546875 96.640625 347.542969 96.753906 347.539062 96.867188 C 347.382812 101.175781 347.304688 105.792969 345.957031 109.929688 C 345.660156 110.839844 345.273438 111.703125 344.761719 112.507812 C 344.734375 112.546875 344.515625 112.839844 344.304688 113.113281 C 344.261719 113.066406 344.214844 113.023438 344.175781 112.976562 C 342.875 111.476562 342.042969 109.621094 341.460938 107.738281 C 340.199219 103.664062 339.742188 99.289062 339.300781 95.066406 C 338.273438 85.308594 338.21875 75.453125 339.132812 65.6875 C 339.265625 64.265625 339.386719 62.832031 339.597656 61.417969 C 339.652344 61.046875 339.703125 60.679688 339.804688 60.316406 C 339.828125 60.234375 339.960938 59.949219 340.085938 59.675781 C 340.273438 59.964844 340.503906 60.292969 340.539062 60.359375 C 341.0625 61.367188 341.511719 62.414062 341.992188 63.445312 C 343.113281 65.847656 344.191406 68.285156 345.109375 70.777344 C 345.5 71.84375 345.859375 72.921875 346.230469 73.996094 C 347.3125 73.582031 348.421875 73.46875 349.523438 73.589844 C 349.355469 72.707031 349.175781 71.824219 348.984375 70.945312 C 348.417969 67.722656 347.390625 64.523438 346.261719 61.640625 C 345.605469 59.972656 344.855469 57.84375 343.597656 56.351562 C 343.054688 55.472656 342.472656 54.613281 341.832031 53.785156 C 341.328125 53.132812 340.417969 53.917969 340.683594 54.597656 C 339.03125 54.351562 337.367188 55.160156 336.375 56.617188 C 335.050781 58.558594 334.949219 60.980469 334.707031 63.246094 C 334.390625 66.191406 334.164062 69.144531 334.023438 72.105469 C 333.746094 78.027344 333.816406 83.960938 334.246094 89.875 C 334.652344 95.4375 335.136719 101.195312 336.5 106.613281 C 337.066406 108.863281 337.859375 111.113281 339.035156 113.117188 C 340.039062 114.832031 341.71875 117.394531 343.832031 117.75 C 346.300781 118.160156 347.988281 115.46875 348.902344 113.542969 Z M 340.304688 59.183594 C 340.3125 59.15625 340.316406 59.140625 340.316406 59.132812 C 340.324219 59.15625 340.316406 59.171875 340.304688 59.183594 Z M 340.304688 59.183594 " fill-opacity="1" fill-rule="nonzero"/><path fill="#d1e1f1" d="M 337.585938 63.90625 C 335.414062 62.554688 332.152344 62.636719 329.6875 62.699219 C 327.289062 62.761719 324.101562 62.957031 322.355469 64.800781 C 322.070312 65.101562 322.179688 65.636719 322.605469 65.746094 C 324.925781 66.328125 327.613281 65.40625 329.96875 65.195312 C 332.414062 64.980469 335.046875 65.515625 337.4375 65.03125 C 337.980469 64.921875 338.007812 64.167969 337.585938 63.90625 Z M 337.585938 63.90625 " fill-opacity="1" fill-rule="nonzero"/><path fill="#d1e1f1" d="M 337.476562 75.605469 C 334.621094 75.128906 331.78125 75.097656 328.894531 75.085938 C 326.550781 75.074219 322.691406 74.402344 320.683594 75.867188 C 320.160156 76.246094 320.121094 76.953125 320.683594 77.328125 C 322.765625 78.722656 326.539062 77.886719 328.894531 77.777344 C 331.78125 77.640625 334.636719 77.5 337.476562 76.898438 C 338.09375 76.761719 338.125 75.714844 337.476562 75.605469 Z M 337.476562 75.605469 " fill-opacity="1" fill-rule="nonzero"/><path fill="#d1e1f1" d="M 336.933594 88.460938 C 334.320312 87.351562 331.179688 87.414062 328.390625 87.429688 C 326.820312 87.433594 325.257812 87.527344 323.695312 87.703125 C 322.449219 87.84375 321.011719 87.757812 320.144531 88.761719 C 319.769531 89.195312 319.800781 89.863281 320.328125 90.171875 C 321.546875 90.886719 322.941406 90.324219 324.28125 90.175781 C 325.648438 90.023438 327.023438 89.902344 328.394531 89.824219 C 331.164062 89.667969 334.054688 90.066406 336.789062 89.585938 C 337.28125 89.5 337.414062 88.664062 336.933594 88.460938 Z M 336.933594 88.460938 " fill-opacity="1" fill-rule="nonzero"/><path fill="#d1e1f1" d="M 337.164062 102.558594 C 334.890625 102.164062 332.824219 102.15625 330.5 102.230469 C 328.050781 102.308594 325.34375 102.203125 322.960938 102.792969 C 322.265625 102.964844 321.753906 103.671875 321.753906 104.378906 C 321.753906 104.523438 321.785156 104.675781 321.8125 104.816406 C 321.964844 105.550781 322.707031 105.984375 323.398438 106.023438 C 325.730469 106.164062 328.285156 105.566406 330.59375 105.214844 C 332.90625 104.863281 334.976562 104.507812 337.164062 103.699219 C 337.648438 103.515625 337.792969 102.667969 337.164062 102.558594 Z M 337.164062 102.558594 " fill-opacity="1" fill-rule="nonzero"/><path fill="#d1e1f1" d="M 418.71875 83.878906 C 415.320312 83.355469 412.007812 82.398438 408.59375 81.890625 C 405.167969 81.378906 401.746094 80.847656 398.3125 80.375 C 391.4375 79.421875 384.574219 78.355469 377.722656 77.230469 C 370.960938 76.117188 364.203125 75.027344 357.460938 73.789062 C 354.113281 73.175781 350.761719 72.382812 347.390625 71.90625 C 344.480469 71.492188 341.789062 72.429688 340.492188 75.21875 C 337.902344 80.785156 340.148438 88.136719 342.152344 93.53125 C 343.179688 96.300781 344.277344 98.378906 347.601562 97.941406 C 351.03125 97.488281 354.441406 96.777344 357.855469 96.214844 C 371.675781 93.9375 385.601562 92.007812 399.628906 91.875 C 403.511719 91.835938 407.398438 91.941406 411.273438 92.210938 C 414.371094 92.425781 418.105469 93.40625 420.996094 91.832031 C 423.324219 90.5625 424.621094 87.605469 423.105469 85.222656 C 421.761719 83.105469 418.863281 82.546875 416.542969 82.765625 C 415.765625 82.839844 415.265625 83.226562 414.992188 83.949219 C 413.808594 87.066406 415.058594 90.648438 418.234375 91.816406 C 419.308594 92.210938 419.945312 90.75 419.28125 90.011719 C 417.988281 88.582031 417.34375 86.632812 418.09375 84.808594 C 417.574219 85.203125 417.058594 85.597656 416.542969 85.992188 C 417.59375 85.921875 420.832031 85.957031 420.410156 87.753906 C 419.847656 90.160156 415.34375 89.167969 413.722656 89.027344 C 407.710938 88.507812 401.671875 88.410156 395.644531 88.621094 C 383.796875 89.035156 372.03125 90.628906 360.339844 92.523438 C 357.398438 93 354.460938 93.5 351.523438 94.003906 C 350.113281 94.246094 348.695312 94.570312 347.277344 94.738281 C 346.425781 94.839844 346.449219 94.832031 346.152344 94.09375 C 345.878906 93.425781 345.71875 92.679688 345.511719 91.988281 C 344.6875 89.214844 343.789062 86.441406 343.484375 83.550781 C 343.277344 81.558594 342.914062 78.027344 344.433594 76.394531 C 345.25 75.511719 346.605469 75.863281 347.640625 76.054688 C 349.148438 76.339844 350.652344 76.652344 352.15625 76.941406 C 355.066406 77.503906 357.980469 78.046875 360.898438 78.574219 C 366.730469 79.628906 372.578125 80.652344 378.445312 81.496094 C 385.09375 82.449219 391.753906 83.324219 398.425781 84.101562 C 401.667969 84.480469 404.917969 84.746094 408.171875 85.003906 C 411.640625 85.277344 415.078125 85.03125 418.539062 85.191406 C 419.277344 85.226562 419.46875 83.996094 418.71875 83.878906 Z M 418.71875 83.878906 " fill-opacity="1" fill-rule="nonzero"/><path fill="#d1e1f1" d="M 290.304688 102.210938 C 290.90625 96.128906 290.621094 90.007812 290.707031 83.90625 C 290.792969 77.800781 291.117188 71.703125 291.675781 65.625 C 292.230469 59.636719 292.964844 53.644531 294.050781 47.726562 C 294.527344 45.109375 295.019531 42.492188 295.816406 39.949219 C 296.597656 37.460938 297.75 35.140625 298.648438 32.703125 C 298.855469 32.140625 298.089844 31.800781 297.703125 32.152344 C 293.960938 35.601562 292.421875 41.632812 291.425781 46.453125 C 290.183594 52.464844 289.414062 58.613281 288.769531 64.714844 C 288.105469 70.992188 287.695312 77.289062 287.539062 83.597656 C 287.382812 89.894531 287.347656 96.25 288.695312 102.429688 C 288.90625 103.394531 290.21875 103.074219 290.304688 102.210938 Z M 290.304688 102.210938 " fill-opacity="1" fill-rule="nonzero"/><path fill="#d1e1f1" d="M 296.527344 131.84375 C 297.078125 130.679688 296.476562 129.65625 296.09375 128.492188 C 295.609375 127.007812 295.15625 125.511719 294.714844 124.011719 C 294.277344 122.515625 293.824219 121.019531 293.410156 119.515625 C 293.035156 118.152344 292.804688 116.710938 292.195312 115.433594 C 291.921875 114.855469 291.066406 115.175781 291.050781 115.746094 C 291.011719 117.160156 291.4375 118.601562 291.722656 119.980469 C 292.046875 121.507812 292.378906 123.039062 292.785156 124.546875 C 293.1875 126.058594 293.632812 127.554688 294.097656 129.046875 C 294.445312 130.15625 294.609375 131.5 295.71875 132.0625 C 295.984375 132.191406 296.382812 132.148438 296.527344 131.84375 Z M 296.527344 131.84375 " fill-opacity="1" fill-rule="nonzero"/><path fill="#d1e1f1" d="M 44.019531 72.265625 C 44.738281 69.296875 45.042969 66.1875 45.484375 63.167969 C 45.933594 60.113281 46.480469 57.074219 47.078125 54.050781 C 47.652344 51.132812 48.375 48.242188 49.304688 45.417969 C 49.828125 43.824219 50.417969 42.257812 51.089844 40.722656 C 51.589844 39.582031 52.09375 37.671875 53.507812 37.457031 C 54.371094 37.328125 54.15625 35.921875 53.304688 35.945312 C 50.542969 36.015625 49.453125 39.371094 48.566406 41.488281 C 47.238281 44.652344 46.203125 47.933594 45.390625 51.269531 C 44.59375 54.550781 44.0625 57.863281 43.660156 61.21875 C 43.230469 64.800781 42.785156 68.503906 42.910156 72.113281 C 42.933594 72.730469 43.867188 72.902344 44.019531 72.265625 Z M 44.019531 72.265625 " fill-opacity="1" fill-rule="nonzero"/><path fill="#d1e1f1" d="M 50.417969 138.152344 C 50.003906 135.613281 49.207031 133.101562 48.664062 130.582031 C 48.148438 128.144531 47.679688 125.703125 47.269531 123.246094 C 46.441406 118.261719 46.199219 113.160156 45.261719 108.207031 C 45.195312 107.875 44.730469 107.984375 44.707031 108.285156 C 44.292969 113.359375 45.046875 118.722656 45.679688 123.765625 C 45.984375 126.21875 46.339844 128.671875 46.753906 131.113281 C 47.179688 133.632812 47.511719 136.304688 48.289062 138.746094 C 48.734375 140.121094 50.640625 139.535156 50.417969 138.152344 Z M 50.417969 138.152344 " fill-opacity="1" fill-rule="nonzero"/><g fill="#d1e1f1" fill-opacity="1"><g transform="translate(48.776551, 99.087782)"><g><path d="M 12.828125 0.359375 C 10.503906 0.359375 8.46875 -0.0820312 6.71875 -0.96875 C 4.976562 -1.863281 3.625 -3.117188 2.65625 -4.734375 C 1.695312 -6.347656 1.21875 -8.253906 1.21875 -10.453125 C 1.21875 -12.429688 1.617188 -14.207031 2.421875 -15.78125 C 3.234375 -17.363281 4.390625 -18.601562 5.890625 -19.5 C 7.390625 -20.40625 9.128906 -20.859375 11.109375 -20.859375 C 12.234375 -20.859375 13.425781 -20.65625 14.6875 -20.25 C 15.957031 -19.84375 16.757812 -19.234375 17.09375 -18.421875 L 17.875 -20.46875 L 22.03125 -20.46875 L 22.03125 -12.015625 L 16.515625 -12.015625 C 16.410156 -13.023438 16.109375 -13.816406 15.609375 -14.390625 C 15.117188 -14.972656 14.503906 -15.265625 13.765625 -15.265625 C 12.671875 -15.265625 11.835938 -14.914062 11.265625 -14.21875 C 10.691406 -13.53125 10.40625 -12.257812 10.40625 -10.40625 C 10.40625 -8.5 10.898438 -7.179688 11.890625 -6.453125 C 12.878906 -5.722656 14.015625 -5.359375 15.296875 -5.359375 C 16.210938 -5.359375 17.203125 -5.519531 18.265625 -5.84375 C 19.335938 -6.175781 20.289062 -6.691406 21.125 -7.390625 L 21.40625 -7.203125 L 21.40625 -1.875 C 21.40625 -1.820312 21.007812 -1.597656 20.21875 -1.203125 C 19.4375 -0.816406 18.40625 -0.457031 17.125 -0.125 C 15.851562 0.195312 14.421875 0.359375 12.828125 0.359375 Z M 12.828125 0.359375 "/></g></g></g><g fill="#d1e1f1" fill-opacity="1"><g transform="translate(72.633219, 99.087782)"><g><path d="M 13.03125 0.359375 C 10.726562 0.359375 8.703125 -0.0625 6.953125 -0.90625 C 5.210938 -1.757812 3.859375 -3 2.890625 -4.625 C 1.929688 -6.257812 1.453125 -8.203125 1.453125 -10.453125 C 1.453125 -12.660156 1.929688 -14.546875 2.890625 -16.109375 C 3.859375 -17.679688 5.210938 -18.863281 6.953125 -19.65625 C 8.703125 -20.457031 10.726562 -20.859375 13.03125 -20.859375 C 16.550781 -20.859375 19.367188 -19.953125 21.484375 -18.140625 C 23.597656 -16.328125 24.65625 -13.765625 24.65625 -10.453125 C 24.65625 -8.203125 24.171875 -6.257812 23.203125 -4.625 C 22.234375 -3 20.875 -1.757812 19.125 -0.90625 C 17.382812 -0.0625 15.351562 0.359375 13.03125 0.359375 Z M 13.03125 -5.25 C 13.863281 -5.25 14.484375 -5.65625 14.890625 -6.46875 C 15.296875 -7.289062 15.5 -8.617188 15.5 -10.453125 C 15.5 -12.140625 15.300781 -13.363281 14.90625 -14.125 C 14.507812 -14.882812 13.882812 -15.265625 13.03125 -15.265625 C 12.195312 -15.265625 11.582031 -14.882812 11.1875 -14.125 C 10.800781 -13.363281 10.609375 -12.140625 10.609375 -10.453125 C 10.609375 -8.617188 10.804688 -7.289062 11.203125 -6.46875 C 11.609375 -5.65625 12.21875 -5.25 13.03125 -5.25 Z M 13.03125 -5.25 "/></g></g></g><g fill="#d1e1f1" fill-opacity="1"><g transform="translate(98.71912, 99.087782)"><g><path d="M 8.6875 -22.453125 C 7.09375 -22.453125 5.78125 -22.832031 4.75 -23.59375 C 3.71875 -24.351562 3.203125 -25.4375 3.203125 -26.84375 C 3.203125 -28.25 3.71875 -29.316406 4.75 -30.046875 C 5.78125 -30.773438 7.101562 -31.140625 8.71875 -31.140625 C 10.34375 -31.140625 11.660156 -30.78125 12.671875 -30.0625 C 13.691406 -29.34375 14.203125 -28.269531 14.203125 -26.84375 C 14.203125 -25.4375 13.679688 -24.351562 12.640625 -23.59375 C 11.597656 -22.832031 10.28125 -22.453125 8.6875 -22.453125 Z M 1.640625 0 L 1.640625 -5.75 L 4.109375 -5.75 L 4.109375 -14.546875 L 1.640625 -14.546875 L 1.640625 -19.25 L 13.265625 -20.46875 L 13.265625 -5.75 L 15.734375 -5.75 L 15.734375 0 Z M 1.640625 0 "/></g></g></g><g fill="#d1e1f1" fill-opacity="1"><g transform="translate(115.692549, 99.087782)"><g><path d="M 29.65625 -5.515625 L 29.65625 0 L 17.84375 0 L 17.84375 -13.03125 C 17.84375 -13.570312 17.664062 -14.050781 17.3125 -14.46875 C 16.957031 -14.894531 16.535156 -15.109375 16.046875 -15.109375 C 15.097656 -15.109375 14.5 -14.644531 14.25 -13.71875 C 14.007812 -12.789062 13.890625 -11.453125 13.890625 -9.703125 L 13.890625 -5.515625 L 13.921875 -5.515625 L 13.921875 0 L 2 0 L 2 -5.515625 L 4.765625 -5.515625 L 4.765625 -14.546875 L 2 -14.546875 L 2 -19.71875 L 13.890625 -20.859375 L 13.890625 -18 C 14.773438 -19.039062 15.773438 -19.773438 16.890625 -20.203125 C 18.015625 -20.640625 19.285156 -20.859375 20.703125 -20.859375 C 24.898438 -20.859375 27 -18.234375 27 -12.984375 L 27 -5.515625 Z M 29.65625 -5.515625 "/></g></g></g><g fill="#d1e1f1" fill-opacity="1"><g transform="translate(145.845815, 99.087782)"><g/></g></g><g fill="#d1e1f1" fill-opacity="1"><g transform="translate(153.902335, 99.087782)"><g><path d="M 12.328125 0.359375 C 9.710938 0.359375 7.40625 -0.332031 5.40625 -1.71875 L 4.765625 0 L 1.21875 0 L 1.21875 -7.546875 L 5.484375 -7.546875 C 5.640625 -6.585938 6.085938 -5.722656 6.828125 -4.953125 C 7.566406 -4.179688 8.421875 -3.796875 9.390625 -3.796875 C 9.753906 -3.796875 10.070312 -3.898438 10.34375 -4.109375 C 10.625 -4.316406 10.765625 -4.65625 10.765625 -5.125 C 10.765625 -5.59375 10.492188 -6.015625 9.953125 -6.390625 C 9.421875 -6.773438 8.609375 -7.226562 7.515625 -7.75 C 6.210938 -8.394531 5.140625 -8.984375 4.296875 -9.515625 C 3.460938 -10.054688 2.738281 -10.765625 2.125 -11.640625 C 1.519531 -12.515625 1.21875 -13.566406 1.21875 -14.796875 C 1.21875 -16.066406 1.625 -17.15625 2.4375 -18.0625 C 3.257812 -18.976562 4.347656 -19.671875 5.703125 -20.140625 C 7.066406 -20.617188 8.546875 -20.859375 10.140625 -20.859375 C 12.222656 -20.859375 14.148438 -20.304688 15.921875 -19.203125 L 16.390625 -20.46875 L 19.5625 -20.46875 L 19.5625 -14.359375 L 15.890625 -14.359375 C 15.578125 -15.191406 15.117188 -15.84375 14.515625 -16.3125 C 13.910156 -16.78125 13.207031 -17.015625 12.40625 -17.015625 C 11.957031 -17.015625 11.609375 -16.945312 11.359375 -16.8125 C 11.117188 -16.6875 11 -16.457031 11 -16.125 C 11.019531 -15.707031 11.265625 -15.351562 11.734375 -15.0625 C 12.203125 -14.769531 12.984375 -14.390625 14.078125 -13.921875 C 15.441406 -13.347656 16.566406 -12.800781 17.453125 -12.28125 C 18.335938 -11.757812 19.113281 -11.019531 19.78125 -10.0625 C 20.445312 -9.113281 20.78125 -7.9375 20.78125 -6.53125 C 20.78125 -5.039062 20.382812 -3.78125 19.59375 -2.75 C 18.8125 -1.726562 17.78125 -0.953125 16.5 -0.421875 C 15.226562 0.0976562 13.835938 0.359375 12.328125 0.359375 Z M 12.328125 0.359375 "/></g></g></g><g fill="#d1e1f1" fill-opacity="1"><g transform="translate(176.546616, 99.087782)"><g><path d="M 8.53125 0.359375 C 7.25 0.359375 6.070312 0.101562 5 -0.40625 C 3.9375 -0.914062 3.082031 -1.640625 2.4375 -2.578125 C 1.800781 -3.515625 1.484375 -4.613281 1.484375 -5.875 C 1.484375 -7.226562 1.851562 -8.367188 2.59375 -9.296875 C 3.34375 -10.222656 4.328125 -10.910156 5.546875 -11.359375 C 6.773438 -11.816406 8.09375 -12.046875 9.5 -12.046875 C 11.175781 -12.046875 12.78125 -11.800781 14.3125 -11.3125 L 14.3125 -12.171875 C 14.3125 -13.179688 13.878906 -13.953125 13.015625 -14.484375 C 12.160156 -15.023438 11.003906 -15.296875 9.546875 -15.296875 C 8.609375 -15.296875 7.523438 -15.125 6.296875 -14.78125 C 5.066406 -14.445312 4.050781 -14.03125 3.25 -13.53125 L 2.703125 -13.765625 L 2.703125 -19.328125 C 4.242188 -19.878906 5.816406 -20.269531 7.421875 -20.5 C 9.023438 -20.738281 10.515625 -20.859375 11.890625 -20.859375 C 19.640625 -20.859375 23.515625 -18.675781 23.515625 -14.3125 L 23.515625 -5.75 L 25.3125 -5.75 L 25.3125 0 L 15.53125 0 L 14.671875 -3.125 C 14.117188 -2.0625 13.265625 -1.210938 12.109375 -0.578125 C 10.953125 0.046875 9.757812 0.359375 8.53125 0.359375 Z M 12.125 -4.53125 C 12.539062 -4.53125 12.96875 -4.601562 13.40625 -4.75 C 13.851562 -4.894531 14.15625 -5.046875 14.3125 -5.203125 L 14.3125 -8.40625 C 14.132812 -8.4375 13.828125 -8.507812 13.390625 -8.625 C 12.960938 -8.738281 12.59375 -8.796875 12.28125 -8.796875 C 11.601562 -8.796875 11.0625 -8.585938 10.65625 -8.171875 C 10.257812 -7.753906 10.0625 -7.195312 10.0625 -6.5 C 10.0625 -5.976562 10.25 -5.519531 10.625 -5.125 C 11 -4.726562 11.5 -4.53125 12.125 -4.53125 Z M 12.125 -4.53125 "/></g></g></g><g fill="#d1e1f1" fill-opacity="1"><g transform="translate(203.219157, 99.087782)"><g><path d="M 9.828125 0.359375 C 5.722656 0.359375 3.671875 -2.210938 3.671875 -7.359375 L 3.671875 -14.546875 L 1.21875 -14.546875 L 1.21875 -19.71875 L 12.828125 -20.859375 L 12.828125 -7.359375 C 12.828125 -6.859375 13.007812 -6.398438 13.375 -5.984375 C 13.738281 -5.566406 14.171875 -5.359375 14.671875 -5.359375 C 15.242188 -5.359375 15.691406 -5.550781 16.015625 -5.9375 C 16.347656 -6.332031 16.515625 -6.816406 16.515625 -7.390625 L 16.515625 -14.546875 L 14.671875 -14.546875 L 14.671875 -19.71875 L 25.671875 -20.859375 L 25.671875 -5.75 L 28.125 -5.75 L 28.125 0 L 16.515625 0 L 16.515625 -2.96875 C 15.835938 -1.925781 14.9375 -1.109375 13.8125 -0.515625 C 12.6875 0.0664062 11.359375 0.359375 9.828125 0.359375 Z M 9.828125 0.359375 "/></g></g></g><g fill="#d1e1f1" fill-opacity="1"><g transform="translate(232.590233, 99.087782)"><g><path d="M 12.828125 0.359375 C 10.503906 0.359375 8.46875 -0.0820312 6.71875 -0.96875 C 4.976562 -1.863281 3.625 -3.117188 2.65625 -4.734375 C 1.695312 -6.347656 1.21875 -8.253906 1.21875 -10.453125 C 1.21875 -12.429688 1.617188 -14.207031 2.421875 -15.78125 C 3.234375 -17.363281 4.390625 -18.601562 5.890625 -19.5 C 7.390625 -20.40625 9.128906 -20.859375 11.109375 -20.859375 C 12.234375 -20.859375 13.425781 -20.65625 14.6875 -20.25 C 15.957031 -19.84375 16.757812 -19.234375 17.09375 -18.421875 L 17.875 -20.46875 L 22.03125 -20.46875 L 22.03125 -12.015625 L 16.515625 -12.015625 C 16.410156 -13.023438 16.109375 -13.816406 15.609375 -14.390625 C 15.117188 -14.972656 14.503906 -15.265625 13.765625 -15.265625 C 12.671875 -15.265625 11.835938 -14.914062 11.265625 -14.21875 C 10.691406 -13.53125 10.40625 -12.257812 10.40625 -10.40625 C 10.40625 -8.5 10.898438 -7.179688 11.890625 -6.453125 C 12.878906 -5.722656 14.015625 -5.359375 15.296875 -5.359375 C 16.210938 -5.359375 17.203125 -5.519531 18.265625 -5.84375 C 19.335938 -6.175781 20.289062 -6.691406 21.125 -7.390625 L 21.40625 -7.203125 L 21.40625 -1.875 C 21.40625 -1.820312 21.007812 -1.597656 20.21875 -1.203125 C 19.4375 -0.816406 18.40625 -0.457031 17.125 -0.125 C 15.851562 0.195312 14.421875 0.359375 12.828125 0.359375 Z M 12.828125 0.359375 "/></g></g></g><g fill="#d1e1f1" fill-opacity="1"><g transform="translate(256.446901, 99.087782)"><g><path d="M 12.828125 0.359375 C 10.453125 0.359375 8.390625 -0.078125 6.640625 -0.953125 C 4.898438 -1.828125 3.5625 -3.070312 2.625 -4.6875 C 1.6875 -6.3125 1.21875 -8.207031 1.21875 -10.375 C 1.21875 -12.507812 1.671875 -14.363281 2.578125 -15.9375 C 3.492188 -17.519531 4.78125 -18.734375 6.4375 -19.578125 C 8.09375 -20.429688 10.03125 -20.859375 12.25 -20.859375 C 14.3125 -20.859375 16.125 -20.453125 17.6875 -19.640625 C 19.25 -18.828125 20.457031 -17.675781 21.3125 -16.1875 C 22.175781 -14.707031 22.609375 -12.976562 22.609375 -11 C 22.609375 -10.320312 22.503906 -9.664062 22.296875 -9.03125 L 10.40625 -9.03125 C 10.40625 -7.832031 10.851562 -6.875 11.75 -6.15625 C 12.65625 -5.445312 13.75 -5.09375 15.03125 -5.09375 C 15.988281 -5.09375 17.046875 -5.257812 18.203125 -5.59375 C 19.367188 -5.9375 20.539062 -6.457031 21.71875 -7.15625 L 22.03125 -7.046875 L 22.03125 -1.921875 C 20.726562 -1.160156 19.382812 -0.585938 18 -0.203125 C 16.613281 0.171875 14.890625 0.359375 12.828125 0.359375 Z M 15.296875 -12.40625 L 15.296875 -12.796875 C 15.296875 -13.703125 15.085938 -14.484375 14.671875 -15.140625 C 14.253906 -15.796875 13.640625 -16.125 12.828125 -16.125 C 12.148438 -16.125 11.578125 -15.789062 11.109375 -15.125 C 10.640625 -14.457031 10.40625 -13.734375 10.40625 -12.953125 L 10.40625 -12.40625 Z M 15.296875 -12.40625 "/></g></g></g></svg>